Coordinates
version=1
nRows=11
nColumns=40
inDegrees=yes

Units are S.I. units (second, meters, Newtons, ...)
If the header above contains a line with 'inDegrees', this indicates whether rotational values are in degrees (yes) or radians (no).

endheader
time	pelvis_tilt	pelvis_list	pelvis_rotation	pelvis_tx	pelvis_ty	pelvis_tz	hip_flexion_r	hip_adduction_r	hip_rotation_r	knee_angle_r	knee_angle_r_beta	ankle_angle_r	subtalar_angle_r	mtp_angle_r	hip_flexion_l	hip_adduction_l	hip_rotation_l	knee_angle_l	knee_angle_l_beta	ankle_angle_l	subtalar_angle_l	mtp_angle_l	lumbar_extension	lumbar_bending	lumbar_rotation	arm_flex_r	arm_add_r	arm_rot_r	elbow_flex_r	pro_sup_r	wrist_flex_r	wrist_dev_r	arm_flex_l	arm_add_l	arm_rot_l	elbow_flex_l	pro_sup_l	wrist_flex_l	wrist_dev_l
     12.06666667	     -6.19293034	     14.58072256	     -5.78104414	     -0.25121467	      1.05224341	      0.25845991	     87.17133110	     -7.16900666	     29.21097809	    124.51796406	      2.17324845	     26.06494125	     -9.55744033	      0.00000000	     39.86913603	      5.19829095	    -15.42666790	     41.69804032	      0.72776810	      0.18984322	    -17.94458578	      0.00000000	    -44.76903454	    -13.52228263	    -13.32212487	     89.90499142	      5.29028143	     87.94580028	      4.49794737	     72.07611602	      0.00000000	      0.00000000	     88.78882686	    -17.07965820	     53.14286243	     25.36901803	     88.06438110	      0.00000000	      0.00000000
     12.07500000	     -6.24193112	     14.68537302	     -5.83066133	     -0.25156474	      1.05230933	      0.25877433	     87.87171870	     -6.79898176	     29.15649064	    124.19420653	      2.16759782	     26.66447998	     -9.65612799	      0.00000000	     39.48605464	      5.39754677	    -15.29008938	     41.88252588	      0.73098798	     -0.08757262	    -18.39180763	      0.00000000	    -44.75771958	    -13.68282441	    -13.35862170	     89.90698866	      5.28008156	     87.75972166	      4.53022861	     72.40865967	      0.00000000	      0.00000000	     88.85405859	    -17.03576237	     53.16500459	     25.28223803	     88.05235622	      0.00000000	      0.00000000
     12.08333333	     -5.06594068	     13.65227093	     -6.21478544	     -0.25275828	      1.05566515	      0.25869063	     86.60157256	     -6.37819505	     27.74301352	    123.34825253	      2.15283313	     26.99782300	    -10.57207968	      0.00000000	     37.74141121	      4.66864930	    -14.73760250	     42.19919442	      0.73651488	     -0.16136344	    -18.48909273	      0.00000000	    -46.40785241	    -12.74319008	    -12.52734650	     89.85061481	      2.18959665	     65.11078785	     13.47550586	     87.52905424	      0.00000000	      0.00000000	     89.14502850	    -16.83400537	     51.56732134	     25.79261242	     88.13077308	      0.00000000	      0.00000000
     12.09166667	     -4.79719114	     13.67802419	     -6.46453639	     -0.25287339	      1.05635618	      0.25916248	     86.74217831	     -6.00514971	     27.49777740	    122.73181223	      2.14207422	     27.45089468	    -11.04303788	      0.00000000	     37.10194057	      4.67718720	    -14.78537788	     42.67422381	      0.74480571	     -0.16743122	    -18.79062954	      0.00000000	    -46.74787868	    -12.92523920	    -12.43570657	     89.84711974	      2.05794118	     64.13264683	     13.89620433	     87.77794014	      0.00000000	      0.00000000	     89.19170640	    -16.82195572	     51.23408067	     25.94689819	     88.14447633	      0.00000000	      0.00000000
     12.10000000	     -5.13739769	     13.75264502	     -6.53423427	     -0.25353580	      1.05595411	      0.25940909	     87.71099830	     -5.22989658	     27.38234665	    122.11684585	      2.13134103	     27.17801943	    -11.88791237	      0.00000000	     37.30137357	      4.61324282	    -14.85773661	     43.45866162	      0.75849673	     -0.01960320	    -18.94391444	      0.00000000	    -46.44248236	    -13.09898321	    -12.33977070	     89.84691038	      2.01287692	     64.06123137	     13.99278283	     87.70407094	      0.00000000	      0.00000000	     89.22313750	    -16.77358111	     51.08298583	     25.93128974	     88.17255181	      0.00000000	      0.00000000
     12.10833333	     -4.96988430	     13.51082792	     -6.61728986	     -0.25367418	      1.05659617	      0.25981427	     87.74390111	     -4.93896788	     26.70765738	    121.23808942	      2.11600384	     27.18107939	    -12.87648584	      0.00000000	     36.93754221	      4.33819543	    -14.71819965	     44.39093060	      0.77476790	      0.30745391	    -18.78143094	      0.00000000	    -46.68738031	    -12.97096912	    -12.11569453	     89.84935601	      1.89576549	     63.52762790	     14.29043708	     87.80486245	      0.00000000	      0.00000000	     89.25259171	    -16.74260424	     50.86381794	     26.07227797	     88.17219307	      0.00000000	      0.00000000
     12.11666667	     -5.00346090	     13.67496653	     -6.60403448	     -0.25390263	      1.05675426	      0.25977058	     88.17194397	     -4.91858316	     26.48358527	    120.30993888	      2.09980456	     27.31740322	    -12.95090082	      0.00000000	     36.93283096	      4.47985600	    -14.65861445	     45.39997871	      0.79237911	      0.54082980	    -18.86618210	      0.00000000	    -46.73052429	    -13.10949968	    -12.21480286	     89.84715016	      1.83245768	     63.14877267	     14.45325429	     87.83690235	      0.00000000	      0.00000000	     89.29009176	    -16.70015989	     50.59763763	     26.11611741	     88.20158048	      0.00000000	      0.00000000
     12.12500000	     -5.07289128	     13.68721743	     -6.50099498	     -0.25407502	      1.05691062	      0.25972281	     88.45025196	     -4.91681509	     26.05810519	    119.28490274	      2.08191430	     27.33472683	    -13.37739855	      0.00000000	     37.04341004	      4.47121656	    -14.44029112	     46.62807944	      0.81381351	      0.86209292	    -18.85976215	      0.00000000	    -46.73818014	    -13.08243436	    -12.23351641	     89.85072080	      1.75128205	     63.16981430	     14.53421277	     87.75052224	      0.00000000	      0.00000000	     89.31657421	    -16.60500413	     50.42166788	     26.08522735	     88.19283078	      0.00000000	      0.00000000
     12.13333333	     -4.88354710	     13.99030064	     -6.57487906	     -0.25400559	      1.05741935	      0.25966560	     88.48313119	     -4.91645446	     26.02191285	    118.16350076	      2.06234214	     27.30453755	    -13.37527628	      0.00000000	     36.88769572	      4.71141581	    -14.50604434	     47.78411483	      0.83399013	      1.09197919	    -18.87995035	      0.00000000	    -47.00691911	    -13.37690742	    -12.41491624	     89.85271163	      1.65801784	     63.01778221	     14.65074697	     87.75228848	      0.00000000	      0.00000000	     89.37625894	    -16.56595727	     50.35162012	     26.16395080	     88.21304844	      0.00000000	      0.00000000
     12.14166667	     -4.76948990	     14.33217906	     -6.61277715	     -0.25400548	      1.05817192	      0.25954458	     88.50332834	     -5.05159341	     25.93201129	    116.86180108	      2.03962320	     27.31286789	    -13.42722871	      0.00000000	     36.77528408	      5.01490555	    -14.54561653	     48.77791073	      0.85133514	      1.24178704	    -18.86731380	      0.00000000	    -47.24008115	    -13.67309109	    -12.62350156	     89.85588474	      1.57291831	     62.94008878	     14.68841726	     87.75071915	      0.00000000	      0.00000000	     89.43223177	    -16.50138791	     50.29308750	     26.23410186	     88.21416558	      0.00000000	      0.00000000
     12.15000000	     -4.59425083	     14.56477383	     -6.62394103	     -0.25385814	      1.05829552	      0.25939651	     88.43095039	     -5.09040120	     25.88984760	    115.65001513	      2.01847354	     27.04417060	    -13.76849896	      0.00000000	     36.90475773	      5.10679295	    -14.65635987	     50.51738098	      0.88169463	      1.84369227	    -18.89134995	      0.00000000	    -47.47705751	    -13.85446622	    -12.77357430	     89.85341761	      1.42944865	     62.50818203	     15.01562053	     87.75470258	      0.00000000	      0.00000000	     89.44677673	    -16.44287985	     50.02888033	     26.31984560	     88.22935266	      0.00000000	      0.00000000
